HIERARCHY
ROOT Hips
{
 OFFSET 0.000000 0.000000 0.000000
 CHANNELS 6 Xposition Yposition Zposition Yrotation Xrotation Zrotation
 JOINT Chest
 {
  OFFSET 0.000000 9.910571 -0.011835
  CHANNELS 3 Yrotation Xrotation Zrotation
  JOINT Chest2
  {
   OFFSET 0.000000 10.789473 0.021497
   CHANNELS 3 Yrotation Xrotation Zrotation
   JOINT Chest3
   {
    OFFSET 0.000000 9.748205 0.000000
    CHANNELS 3 Yrotation Xrotation Zrotation
    JOINT Chest4
    {
     OFFSET 0.000000 9.748205 0.000000
     CHANNELS 3 Yrotation Xrotation Zrotation
     JOINT Neck
     {
      OFFSET 0.000000 13.998479 0.000000
      CHANNELS 3 Yrotation Xrotation Zrotation
      JOINT Head
      {
       OFFSET 0.000000 9.082285 0.051121
       CHANNELS 3 Yrotation Xrotation Zrotation
       End Site
       {
        OFFSET 0.000000 17.246134 0.026702
       }
      }
     }
     JOINT RightCollar
     {
      OFFSET -3.284495 7.824262 0.000000
      CHANNELS 3 Yrotation Xrotation Zrotation
      JOINT RightShoulder
      {
       OFFSET -15.534540 0.000000 0.000000
       CHANNELS 3 Yrotation Xrotation Zrotation
       JOINT RightElbow
       {
        OFFSET 0.000000 -28.251216 0.000000
        CHANNELS 3 Yrotation Xrotation Zrotation
        JOINT RightWrist
        {
         OFFSET 0.000000 -23.418114 0.012537
         CHANNELS 3 Yrotation Xrotation Zrotation
         End Site
         {
          OFFSET 0.000000 -17.723959 0.000000
         }
        }
       }
      }
     }
     JOINT LeftCollar
     {
      OFFSET 3.284495 7.824262 0.000000
      CHANNELS 3 Yrotation Xrotation Zrotation
      JOINT LeftShoulder
      {
       OFFSET 15.534540 0.000000 0.000000
       CHANNELS 3 Yrotation Xrotation Zrotation
       JOINT LeftElbow
       {
        OFFSET 0.000000 -28.251216 0.000000
        CHANNELS 3 Yrotation Xrotation Zrotation
        JOINT LeftWrist
        {
         OFFSET 0.000000 -23.418114 0.012537
         CHANNELS 3 Yrotation Xrotation Zrotation
         End Site
         {
          OFFSET 0.000000 -17.723959 0.000000
         }
        }
       }
      }
     }
    }
   }
  }
 }
 JOINT RightHip
 {
  OFFSET -8.142657 0.057990 0.005917
  CHANNELS 3 Yrotation Xrotation Zrotation
  JOINT RightKnee
  {
   OFFSET 0.000000 -49.716894 0.008478
   CHANNELS 3 Yrotation Xrotation Zrotation
   JOINT RightAnkle
   {
    OFFSET 0.000000 -43.994153 0.004166
    CHANNELS 3 Yrotation Xrotation Zrotation
    JOINT RightToe
    {
     OFFSET 0.000000 -7.619154 17.822051
     CHANNELS 3 Yrotation Xrotation Zrotation
     End Site
     {
      OFFSET 0.000000 -1.595627 7.159905
     }
    }
   }
  }
 }
 JOINT LeftHip
 {
  OFFSET 8.142657 0.057990 0.005917
  CHANNELS 3 Yrotation Xrotation Zrotation
  JOINT LeftKnee
  {
   OFFSET 0.000000 -49.716894 0.008478
   CHANNELS 3 Yrotation Xrotation Zrotation
   JOINT LeftAnkle
   {
    OFFSET 0.000000 -43.994153 0.004166
    CHANNELS 3 Yrotation Xrotation Zrotation
    JOINT LeftToe
    {
     OFFSET 0.000000 -7.619154 17.822051
     CHANNELS 3 Yrotation Xrotation Zrotation
     End Site
     {
      OFFSET 0.000000 -1.595627 7.159905
     }
    }
   }
  }
 }
}
MOTION
Frames: 6
Frame Time: 0.008333
245.403897 56.552219 264.094303 -54.255859 -55.586859 3.113640 -2.028544 20.958814 -1.526146 -0.778639 9.326743 -0.635585 -0.778639 9.326743 -0.635585 -0.572906 6.995886 -0.463654 1.280799 17.007438 1.495895 1.848790 -4.606940 2.322029 -1.109986 9.445060 12.751273 24.213301 -17.954600 -24.883303 -3.359875 -43.711348 33.794329 3.214600 -8.016931 -8.870251 -1.427953 11.003859 -10.163255 -8.258019 -19.017738 17.937250 23.349637 -47.274731 -31.157716 -4.345431 5.742790 -10.702020 -7.120142 -31.668681 -9.430109 -92.967048 73.848259 -108.589387 -3.459630 -4.940672 7.024038 0.004810 0.246280 0.141286 4.570893 -32.009979 11.854353 77.894243 85.397377 80.351556 -0.635104 1.008264 -1.244240 -0.021579 -0.181619 -0.011254
245.406590 56.548950 264.098431 -54.256146 -55.608741 3.119057 -2.039950 20.970178 -1.521505 -0.783166 9.329814 -0.632279 -0.783166 9.329814 -0.632279 -0.576341 6.998190 -0.461106 1.412426 17.050226 1.539916 2.077416 -4.528556 2.357774 -1.126248 9.434747 12.744061 24.248157 -17.942437 -24.896148 -3.379274 -43.711156 33.802829 3.202183 -8.000936 -8.835901 -1.419030 10.981135 -10.179851 -8.253990 -19.000999 17.929094 23.331633 -47.244110 -31.131927 -4.347012 5.704916 -10.706175 -7.102031 -31.645531 -9.437484 -92.989901 73.845345 -108.612822 -3.462791 -4.965639 7.005278 0.004184 0.248910 0.138395 4.583371 -31.988529 11.842650 77.911422 85.389305 80.374200 -0.639215 1.000191 -1.246558 -0.019381 -0.175939 -0.005682
245.408321 56.546100 264.101404 -54.257950 -55.630169 3.126155 -2.045856 20.981687 -1.515697 -0.787012 9.333543 -0.628973 -0.787012 9.333543 -0.628973 -0.579265 7.000987 -0.458567 1.525685 17.091993 1.571091 2.276458 -4.451846 2.376260 -1.152308 9.423948 12.732175 24.291988 -17.932059 -24.907442 -3.402860 -43.707042 33.813430 3.198795 -7.991317 -8.809931 -1.424649 10.959954 -10.193740 -8.249692 -18.992206 17.921468 23.313779 -47.224622 -31.142044 -4.339074 5.690540 -10.680890 -7.079828 -31.625472 -9.449455 -93.017568 73.844214 -108.635499 -3.459453 -4.982026 6.982585 0.001662 0.244900 0.135168 4.598061 -31.966313 11.837044 77.880202 85.390362 80.347634 -0.648198 0.991753 -1.249063 -0.011382 -0.169524 0.000636
245.410724 56.543162 264.105387 -54.264173 -55.651285 3.139978 -2.058728 20.995868 -1.518045 -0.791765 9.338104 -0.628773 -0.791765 9.338104 -0.628773 -0.582819 7.004413 -0.458337 1.622166 17.131025 1.587961 2.449355 -4.379986 2.374205 -1.166145 9.403456 12.725193 24.331117 -17.922530 -24.911624 -3.424028 -43.700401 33.822687 3.202915 -7.984569 -8.784170 -1.414352 10.927525 -10.195883 -8.242655 -18.971396 17.907220 23.303592 -47.191981 -31.125126 -4.345818 5.652720 -10.678730 -7.053632 -31.604095 -9.466616 -93.040578 73.846350 -108.650102 -3.464667 -5.002107 6.952509 0.001519 0.246578 0.136548 4.620970 -31.946134 11.823709 77.901004 85.391476 80.370499 -0.645169 0.982251 -1.240108 -0.016870 -0.164990 0.001204
245.411986 56.540443 264.105696 -54.266045 -55.667389 3.140154 -2.068892 21.008425 -1.509224 -0.797820 9.342232 -0.627617 -0.797820 9.342232 -0.627617 -0.587362 7.007514 -0.457372 1.699940 17.171711 1.591654 2.592178 -4.304819 2.354380 -1.167101 9.386308 12.713169 24.365453 -17.921475 -24.916926 -3.444563 -43.686263 33.833517 3.209935 -7.976041 -8.770007 -1.402393 10.895374 -10.213341 -8.247016 -18.947920 17.906829 23.293898 -47.181276 -31.140837 -4.343128 5.642376 -10.654057 -7.037176 -31.582635 -9.458943 -93.038452 73.850171 -108.641785 -3.483828 -5.014878 6.919241 0.014807 0.248645 0.142948 4.634802 -31.931224 11.825417 77.861260 85.392387 80.335361 -0.646676 0.975969 -1.234727 -0.017590 -0.159477 0.001672
245.414023 56.539055 264.106677 -54.264687 -55.685154 3.145063 -2.081604 21.024411 -1.512359 -0.803037 9.347197 -0.627967 -0.803037 9.347197 -0.627967 -0.591254 7.011243 -0.457545 1.757390 17.210554 1.589393 2.699412 -4.232893 2.330652 -1.174647 9.360141 12.712533 24.402239 -17.918458 -24.921254 -3.459217 -43.677365 33.842241 3.209262 -7.977991 -8.755075 -1.391704 10.851314 -10.216543 -8.245177 -18.920121 17.901704 23.285561 -47.150738 -31.122907 -4.354865 5.606460 -10.646511 -7.018492 -31.560567 -9.471753 -93.048080 73.858246 -108.642782 -3.485239 -5.034863 6.890859 0.014690 0.252015 0.141603 4.644977 -31.910775 11.822718 77.782215 85.397601 80.254187 -0.650387 0.969424 -1.226969 -0.016666 -0.153374 0.000873
